<?xml version="1.0" encoding="UTF-8" standalone="no"?><!DOCTYPE svg PUBLIC "-//W3C//DTD SVG 1.1//EN" "http://www.w3.org/Graphics/SVG/1.1/DTD/svg11.dtd"><svg width="100%" height="100%" viewBox="0 0 1348 1348" version="1.1" xmlns="http://www.w3.org/2000/svg" xmlns:xlink="http://www.w3.org/1999/xlink" xml:space="preserve" xmlns:serif="http://www.serif.com/" style="fill-rule:evenodd;clip-rule:evenodd;stroke-linejoin:round;stroke-miterlimit:2;"><g id="tracking_marker_03"><rect x="0.228" y="0.449" width="1347.42" height="1347.42" style="fill:#fff;"/><path d="M1347.65,0.449l-0,1347.42l-1347.42,0l0,-1347.42l1347.42,-0Zm-81.25,81.25l-1184.92,-0l0,1184.92l1184.92,0l-0,-1184.92Z"/><g id="CIrcle"><path d="M673.937,674.157l541,0c0,298.587 -242.414,541 -541,541l0,-541Z" style="fill:#fff;"/><path d="M673.937,133.157c298.586,0 541,242.414 541,541l-541,0l0,-541Z"/><path d="M673.937,1215.16c-298.586,0 -541,-242.413 -541,-541l541,0l0,541Z"/><path d="M132.937,674.157c0,-298.586 242.414,-541 541,-541l0,541l-541,0Z" style="fill:#fff;"/><path d="M132.937,674.157c0,-298.586 242.414,-541 541,-541c298.586,0 541,242.414 541,541c0,298.587 -242.414,541 -541,541c-298.586,0 -541,-242.413 -541,-541Zm83.333,0c0,252.594 205.074,457.667 457.667,457.667c252.593,0 457.667,-205.073 457.667,-457.667c-0,-252.593 -205.074,-457.666 -457.667,-457.666c-252.593,-0 -457.667,205.073 -457.667,457.666Z"/></g></g></svg>