<?xml version="1.0" encoding="UTF-8" standalone="no"?><!DOCTYPE svg PUBLIC "-//W3C//DTD SVG 1.1//EN" "http://www.w3.org/Graphics/SVG/1.1/DTD/svg11.dtd"><svg width="100%" height="100%" viewBox="0 0 1348 1348" version="1.1" xmlns="http://www.w3.org/2000/svg" xmlns:xlink="http://www.w3.org/1999/xlink" xml:space="preserve" xmlns:serif="http://www.serif.com/" style="fill-rule:evenodd;clip-rule:evenodd;stroke-linejoin:round;stroke-miterlimit:2;"><g id="tracking_marker_02"><rect x="0.027" y="0.11" width="1347.42" height="1347.42" style="fill:#fff;"/><path d="M1347.44,0.11l-0,1347.42l-1347.42,0l-0,-1347.42l1347.42,0Zm-81.25,81.25l-1184.92,0l-0,1184.92l1184.92,0l-0,-1184.92Z"/><path d="M673.983,673.94l-0.006,-481.129c221.124,0.002 482.157,122.105 482.155,481.251l-482.149,-0.122Z" style="fill:#fff;"/><path d="M673.977,673.94l0.006,481.156c-221.124,-0.108 -482.689,-121.888 -482.512,-481.034l482.506,-0.122Z" style="fill:#fff;"/><path d="M673.983,673.94l-481.425,0.122c0,-221.124 122.273,-482.509 481.419,-482.509l0.006,482.387Z"/><path d="M673.983,673.94l481.012,0c-0.107,221.124 -121.865,482.314 -481.012,482.14l0,-482.14Z"/><path d="M673.735,113.376c309.451,0 560.686,251.235 560.686,560.686c-0,309.451 -251.235,560.686 -560.686,560.686c-309.451,-0 -560.686,-251.235 -560.686,-560.686c0,-309.451 251.235,-560.686 560.686,-560.686Zm0,81.25c-264.608,0 -479.436,214.828 -479.436,479.436c0,264.608 214.828,479.436 479.436,479.436c264.608,-0 479.436,-214.828 479.436,-479.436c-0,-264.608 -214.828,-479.436 -479.436,-479.436Z"/><path d="M838.086,520.98l-68.973,-0.037l0.038,-71.916l68.935,0.037l-0,-68.936l71.916,0l0,68.973l68.973,0.036l-0.038,71.916l-68.935,-0.036l0,68.936l-71.916,-0l-0,-68.973Z"/><path d="M446.825,520.98l-68.973,-0.037l0.038,-71.916l68.935,0.037l0,-68.936l71.916,0l0,68.973l68.974,0.036l-0.038,71.916l-68.936,-0.036l0,68.936l-71.916,-0l0,-68.973Z" style="fill:#fff;"/><path d="M838.086,882.173l-68.973,-0.037l0.038,-71.916l68.935,0.036l-0,-68.935l71.916,0l0,68.973l68.973,0.036l-0.038,71.916l-68.935,-0.036l0,68.936l-71.916,-0l-0,-68.973Z" style="fill:#fff;"/><path d="M446.825,882.173l-68.973,-0.037l0.038,-71.916l68.935,0.036l0,-68.935l71.916,0l0,68.973l68.974,0.036l-0.038,71.916l-68.936,-0.036l0,68.936l-71.916,-0l0,-68.973Z"/></g></svg>