<?xml version="1.0" encoding="UTF-8" standalone="no"?><!DOCTYPE svg PUBLIC "-//W3C//DTD SVG 1.1//EN" "http://www.w3.org/Graphics/SVG/1.1/DTD/svg11.dtd"><svg width="100%" height="100%" viewBox="0 0 1348 1348" version="1.1" xmlns="http://www.w3.org/2000/svg" xmlns:xlink="http://www.w3.org/1999/xlink" xml:space="preserve" xmlns:serif="http://www.serif.com/" style="fill-rule:evenodd;clip-rule:evenodd;stroke-linejoin:round;stroke-miterlimit:2;"><g id="tracking_marker_01"><rect x="0.11" y="0.11" width="1347.42" height="1347.42"/><circle cx="673.819" cy="674.062" r="614.616" style="fill:#fff;"/><path d="M673.819,59.446l530.565,924.892l-1061.12,-0.008l530.559,-924.884Zm-0,349.768l-230.077,401.077l460.157,0.004l-230.08,-401.081Z"/><path d="M1222.92,59.446l-88.111,153.598l176.224,0.001l-88.113,-153.599Z" style="fill:#fff;"/><path d="M136.015,1135.08l-88.111,153.598l176.224,0.001l-88.113,-153.599Z" style="fill:#fff;"/><path d="M647.499,700.128l-50.49,-0.027l0.027,-52.645l50.463,0.026l0,-50.463l52.645,0l0,50.491l50.491,0.027l-0.028,52.645l-50.463,-0.027l0,50.463l-52.645,0l0,-50.49Z"/><path d="M109.693,162.554l-50.49,-0.026l0.027,-52.645l50.463,0.026l0,-50.463l52.645,0l0,50.491l50.491,0.026l-0.027,52.645l-50.464,-0.026l0,50.463l-52.645,-0l0,-50.491Z" style="fill:#fff;"/><path d="M1185.3,1238.19l-50.491,-0.026l0.028,-52.645l50.463,0.026l0,-50.463l52.645,0l0,50.491l50.491,0.026l-0.028,52.646l-50.463,-0.027l0,50.463l-52.645,0l0,-50.491Z" style="fill:#fff;"/></g></svg>